<svg width="294" height="387" viewBox="0 0 294 387" fill="none" xmlns="http://www.w3.org/2000/svg">
<path d="M27.3577 1C22.7816 3.49118 17.2682 13.5314 14.0429 24.4397C9.45344 39.9616 8.06085 53.7928 3.48474 70.1364C-0.0772775 82.8582 -0.209221 128.125 5.73145 159.454C11.0668 187.59 30.9414 206.384 43.4016 219.884C52.8488 230.119 73.1739 243.324 93.8904 253.439C109.811 261.213 136.55 262.699 161.347 261.869C173.704 261.455 180.768 254.345 189.479 245.991C207.524 228.685 215.341 220.848 214.914 186.5C214.828 179.568 201.084 168.79 198.314 167.519C181.692 159.895 152.401 166.223 138.135 172.086C126.519 176.86 121.14 196.318 117.874 210.234C113.526 228.752 119.211 254.244 125.661 265.593C131.865 276.507 136.633 291.134 144.035 303.338C151.882 316.278 160.561 325.558 172.952 332.716C185.997 340.253 231.022 351.526 278.561 354.558C283.921 354.9 281.028 350.822 278.713 348.293C274.3 343.473 269.064 337.384 266.28 334.843C251.153 321.034 291.063 355.779 292 360.799C278.272 370.046 264.461 375.079 258.961 378.011C256.191 379.281 253.461 380.112 253.406 386" stroke="#1A489E" stroke-width="2" stroke-linecap="round"/>
</svg>
