<svg width="450" height="371" viewBox="0 0 450 371" fill="none" xmlns="http://www.w3.org/2000/svg">
<path d="M438.784 9.34393C435.88 8.87886 428.131 7.9346 412.406 6.77191C401.463 5.96277 384.641 3.28381 355.972 2.08588C327.302 0.887949 287.33 0.887949 265.775 1.12049C236.433 1.43704 225.744 3.22744 218.447 3.93915C209.102 4.85067 195.623 7.45543 186.108 9.56943C170.933 12.9409 160.101 14.0229 151.557 15.2138C144.373 16.215 133.833 18.7301 121.413 20.6115C111.832 22.063 102.193 24.3674 88.5845 25.0791C79.1838 25.5708 68.6275 27.6652 61.0825 28.835C49.2738 30.6658 38.506 30.4839 27.7649 31.6536C24.8541 31.9706 20.9934 31.8932 19.0087 33.0559C11.8353 37.2582 14.6013 47.3677 13.8644 58.8608C13.3023 67.6258 12.1642 76.4986 11.4345 97.4624C10.7861 116.092 11.1864 150.982 10.9456 170.578C10.7048 190.175 10.2232 193.431 9.97511 204.409C9.72701 215.388 9.72701 233.991 9.00462 247.76C7.83934 269.971 4.38569 281.317 2.92631 294.149C-2.36886 340.708 4.85269 348.485 5.58968 356.948C5.88159 360.3 6.80826 364.002 7.53065 367.758C8.06461 370.534 30.9318 370.133 62.5346 369.668C74.4005 369.493 77.7632 368.272 111.767 367.793C145.77 367.314 210.304 367.314 244.271 367.081C284.079 366.809 292.817 364.975 306.171 363.093C316.351 361.659 325.887 358.858 356.599 356.519C375.643 355.068 408.925 356.039 425.803 355.109C442.681 354.179 442.199 352.319 441.951 349.268C441.364 342.049 441.222 336.323 440.492 317.931C439.818 300.945 440.244 268.379 440.725 249.748C441.536 218.368 444.126 205.269 444.863 190.034C445.103 186.469 445.585 184.608 445.833 155.048C446.081 125.487 446.081 68.2822 449 9.34393" stroke="#1A489E" stroke-width="2" stroke-linecap="round"/>
</svg>
