<svg width="776" height="485" viewBox="0 0 776 485" fill="none" xmlns="http://www.w3.org/2000/svg">
<path d="M729.624 66C725.28 66.4102 712.582 68.8837 695.904 73.4267C687.79 75.6368 674.989 81.6364 661.008 89.1004C647.027 96.5644 632.455 105.998 621.404 113.73C602.908 126.669 587.295 138.042 573.97 144.269C569.567 146.327 568.916 143.113 569.698 140C573.748 123.868 583.619 115.731 584.222 115.712C596.23 115.341 574.096 138.042 574.663 150.894C576.041 153.007 578.798 153.007 589.473 152.187C600.148 151.366 618.659 149.726 637.73 148.035" stroke="#1A489E" stroke-width="2" stroke-linecap="round"/>
<path d="M774.999 283.526C771.431 282.706 761.943 276.528 744.113 266.821C720.148 253.773 702.617 249.966 698.058 249.556C677.239 247.683 648.543 246.66 639.18 246.032C634.976 245.75 630.223 244.994 627.622 244.379C618.681 242.265 650.38 236.741 667.13 230.924C671.362 229.455 676.636 230.079 677.107 230.489C684.999 237.355 656.133 236.691 645.147 239.805C636.986 242.118 631.799 243.751 630.599 244.777C635.343 252.427 641.716 259.885 644.497 264.434C645.702 266.522 646.49 268.163 647.301 269.854" stroke="#1A489E" stroke-width="2" stroke-linecap="round"/>
<path d="M557.697 457.169C556.516 454.708 555.334 452.247 550 436.212C544.665 420.178 535.213 390.646 529.556 373.996C521.359 349.87 516.357 343.687 509.196 335.806C503.813 329.882 497.261 323.377 493.078 318.405C491.811 316.898 493.228 316.714 494.624 317.125C500.639 318.892 507.525 322.904 515.306 329.946C516.918 331.404 517.502 332.848 518.105 332.867C518.708 332.885 519.101 331.655 518.517 330.406C515.37 323.684 507.597 322.109 501.826 318.386C497.127 315.355 492.87 313.818 490.68 314.017C491.652 319.188 493.252 324.147 495.233 335.303C495.638 339.448 495.638 344.78 495.638 350.274" stroke="#1A489E" stroke-width="2" stroke-linecap="round"/>
<path d="M20.4492 73.957C23.218 74.3672 38.2314 75.2 65.0838 78.904C74.1719 80.1576 85.8496 84.2487 96.8591 88.1951C118.022 95.7809 130.615 102.943 135.58 106.249C146.43 113.474 158.458 124.471 169.587 132.967C172.022 134.825 173.185 136.08 174.188 135.689C175.19 135.297 175.978 133.246 176.187 131.574C177.28 122.823 167.254 112.514 164.873 108.58C163.884 106.946 162.492 106.697 161.884 108.536C157.672 121.264 166.431 136.03 167.045 147.267C167.263 151.249 155.379 139.038 135.491 134.253C128.312 133.619 123.503 133.209 119.928 132.382C118.323 131.966 117.142 131.556 114.731 131.133" stroke="#1A489E" stroke-width="2" stroke-linecap="round"/>
<path d="M1 284C4.21513 279.852 12.9797 271.968 27.8926 262.622C36.7749 257.056 49.2005 252.864 72.9308 249.284C96.6611 245.705 131.543 243.643 150.385 242.375C169.226 241.107 170.97 240.695 170.706 239.658C167.879 228.564 148.79 229.875 135.943 229.025C131.108 228.705 146.024 231.524 152.336 233.804C157.987 235.846 163.342 236.921 170.68 238.808C172.998 239.404 175.938 239.02 176.709 239.227C176.026 239.845 170.169 243.568 161.382 251.658C156.956 256.45 152.596 262.635 148.103 269.007" stroke="#1A489E" stroke-width="2" stroke-linecap="round"/>
<path d="M375.299 1C375.299 3.46106 375.299 5.92212 375.299 19.9054C375.299 33.8887 375.299 59.3196 375.496 73.651C375.727 90.4529 376.492 99.5418 377.674 108.05C379.042 117.9 392.771 95.092 396.578 92.3513C406.754 85.0252 380.502 114.905 375.12 118.453C373.927 119.24 372.148 118.261 370.943 117.434C365.752 113.875 362.982 105.036 357.821 96.7514C355.834 93.0411 353.077 86.8885 351.066 83.5139C349.055 80.1392 347.874 79.729 346.656 79.3064" stroke="#1A489E" stroke-width="2" stroke-linecap="round"/>
<path d="M212.234 483.321C213.822 480.848 218.56 471.787 228.877 450.93C234.707 439.144 245.436 418.687 252.883 403.2C264.908 378.191 269.901 365.265 273.273 360.306C280.248 350.046 286.991 337.97 288.811 331.892C290.546 326.099 289.02 348.609 288.811 361.064C288.706 367.371 291.789 343.314 291.604 328.212C291.57 325.398 289.832 325.465 287.057 327.311C279.95 332.849 270.761 339.523 262.025 344.489C258.015 346.583 254.864 347.814 249.231 351.568" stroke="#1A489E" stroke-width="2" stroke-linecap="round"/>
</svg>
