<svg width="30" height="31" viewBox="0 0 30 31" fill="none" xmlns="http://www.w3.org/2000/svg">
<path d="M9.25254 4.37559C12.3234 4.09608 18.6044 5.15457 21.9197 6.12587C22.6565 6.34175 23.8413 7.1144 24.1859 7.3657C25.7054 8.47362 27.0692 10.2212 27.8764 11.8501C28.7437 13.6003 28.5117 17.5767 27.8824 20.0441C27.3561 22.1074 25.9172 24.5197 24.1433 26.1688C22.3668 27.8204 20.3288 29.4082 17.085 29.7035C14.1831 29.9676 10.6384 29.4727 8.5846 28.5991C6.18707 27.5793 4.88865 26.9573 3.22555 24.6986C2.43725 23.2189 1.75698 21.0551 1.64243 20.0224C1.21897 16.2046 2.42858 16.0766 2.11376 14.6771" stroke="#1A489E" stroke-width="2" stroke-linecap="round"/>
<path d="M19.9988 0.9981C18.7677 1.11016 16.3222 1.61329 11.0147 2.31104C9.36991 2.52728 8.51306 3.17422 7.97034 3.92922C7.70083 4.30415 8.07168 4.90614 8.42778 5.30304C10.9613 7.05324 13.8653 9.20327 14.8776 9.88899C15.3837 10.2 15.8744 10.4359 16.938 11.4782" stroke="#1A489E" stroke-width="2" stroke-linecap="round"/>
</svg>
