<svg width="37" height="38" viewBox="0 0 37 38" fill="none" xmlns="http://www.w3.org/2000/svg">
<path d="M20.0374 3.12608C26.8927 15.2411 30.9539 25.2964 31.0084 27.5178C31.1246 32.2465 17.934 23.4449 12.4608 22.0924C9.7665 21.4266 5.68774 20.569 1.97867 20.1002C-4.08557 19.3337 19.8604 16.6099 23.2227 15.4877C27.6374 14.0143 32.3723 10.4489 34.7907 9.75518C39.588 8.37916 18.8606 23.469 11.9938 30.0946C8.44405 33.5197 7.32861 35.3782 7.15138 35.9136C6.34183 38.3591 9.63053 25.7819 11.99 18.6198C13.8212 13.0612 14.6346 9.09669 16.2404 5.97955C16.6812 5.14547 17.0059 4.31001 17.3219 3.56973C17.6379 2.82944 17.9354 2.20966 18.9781 1.00012" stroke="#1A489E" stroke-width="2" stroke-linecap="round"/>
</svg>
