<svg width="38" height="43" viewBox="0 0 38 43" fill="none" xmlns="http://www.w3.org/2000/svg">
<path d="M17.8001 1C18.8835 2.05886 21.0558 4.88428 25.2097 11.3332C27.7825 15.3274 33.4795 21.7942 35.7171 25.1437C37.9547 28.4932 36.8767 28.3176 35.4231 27.7004C32.0549 26.2702 23.4948 23.715 11.4439 21.7649C6.2392 20.9227 2.80662 20.8683 2.30575 20.8657C-4.63797 20.8288 17.9416 19.2827 27.0172 13.9751C30.0108 12.2244 32.9787 8.86433 34.3751 7.50217C35.3261 6.57453 31.9824 10.5404 25.8331 20.0782C17.3109 33.2963 13.6298 42.4979 13.0854 41.9791C12.9003 38.2997 13.9782 28.738 15.6115 16.6941C16.1668 11.4982 16.1668 8.16197 16.1668 4.72465" stroke="#1A489E" stroke-width="2" stroke-linecap="round"/>
</svg>
