<svg width="33" height="37" viewBox="0 0 33 37" fill="none" xmlns="http://www.w3.org/2000/svg">
<path d="M18.308 2.16478C19.3269 3.65361 23.0769 12.4248 27.0609 22.8701C28.2517 25.9921 28.9724 28.0302 29.1415 29.7218C29.2238 30.5447 28.9366 31.3171 28.6284 31.3525C26.1273 31.6393 24.7813 27.1752 18.2432 22.5009C14.9143 20.1209 11.4344 18.7855 1.94016 15.8197C0.409574 15.3416 1.02518 15.2777 1.83187 15.2776C8.41528 15.2772 20.8398 11.7254 26.6115 9.37185C28.5593 8.5776 30.1713 7.70085 30.5561 7.79054C33.068 8.376 26.5255 12.525 23.7731 15.8256C14.1117 27.4114 8.56873 34.5536 8.04086 35.0436C7.89734 34.8146 8.00629 33.6159 9.39428 27.8206C10.7823 22.0253 13.446 11.6698 16.1905 1.00053" stroke="#1A489E" stroke-width="2" stroke-linecap="round"/>
</svg>
