<svg width="300" height="301" viewBox="0 0 300 301" fill="none" xmlns="http://www.w3.org/2000/svg">
<path d="M106.092 86.8132C108.113 86.4599 116.843 84.7018 122.822 87.904C123.962 88.5142 124.081 89.0205 124.43 89.3027C125.757 90.5549 126.865 91.6713 128.193 93.3458C129.378 95.0203 131.098 96.4999 131.954 98.363C132.723 100.038 134.939 101.815 133.622 109.664C133.133 112.581 132.982 114.839 131.456 116.413C129.219 118.718 127.203 120.904 125.254 121.357C121.668 122.189 116.581 122.587 113.055 121.699C110.547 121.068 107.907 120.468 106.092 119.258C104.417 118.141 101.177 115.929 99.8224 113.402C98.8483 111.586 97.7282 109.721 97.387 107.967C97.0337 106.15 95.2573 99.2884 97.3222 95.4216C98.4385 93.3311 99.687 91.6773 101.576 90.8267C103.74 89.8525 104.09 87.163 106.092 86.8132Z" stroke="#1A489E" stroke-width="2" stroke-linecap="round"/>
<path d="M148.193 77.8394C150 78.8094 153.754 83.012 155.707 85.3179C157.097 86.9601 158.077 88.7317 159.263 90.4752C160.667 92.5414 161.564 94.167 162.47 95.8415C163.32 97.4152 163.931 99.1843 164.7 100.859C165.103 101.736 165.607 102.671 165.816 103.783C166.234 106.003 163.805 107.964 162.825 109.777C161.548 112.138 160.461 113.818 158.023 117.018C155.881 119.831 153.913 122.038 152.79 123.785C151.751 125.404 149.732 127.055 148.193 128.941C146.532 130.977 145.409 132.633 143.665 134.029C141.547 135.726 140.668 137.65 139.482 139.393C138.017 141.417 136.905 142.809 135.861 143.783C135.37 144.206 133.633 145.65 133.207 145.934" stroke="#1A489E" stroke-width="2" stroke-linecap="round"/>
<path d="M129.092 120.098C129.092 121.348 129.368 123.568 129.579 125.734C129.859 128.602 130.205 130.818 130.416 134.717C130.554 137.275 131.183 140.017 132.571 146.692C132.948 148.504 133.545 150.603 134.659 153.457C135.376 155.291 137.158 161.436 139.944 170.003C141.957 176.191 142.89 180.43 143.584 184.124C143.805 185.302 143.864 186.154 144.073 191.059C144.264 195.546 144.144 204.104 144.075 208.717C143.987 214.618 142.89 215.84 142.683 216.605C142.233 218.267 139.277 217.792 135.799 218.281C130.818 218.982 129.101 217.658 125.624 216.615C121.16 215.276 114.233 213.628 110.215 212.085C108.057 211.257 106.523 210.133 103.392 207.979C100.86 206.239 99.1394 204.012 97.0447 202.053C95.1681 200.298 93.4198 197.598 92.3034 195.781C91.2498 194.067 90.0749 191.887 89.3056 189.928C88.5647 188.041 88.1182 185.063 87.7712 181.367C87.2037 175.322 88.1182 171.408 88.4653 168.4C88.8275 165.259 89.3725 163.589 90.8986 159.001C91.8773 156.058 92.709 154.391 93.6205 152.648C94.6235 150.729 94.9417 148.956 96.196 146.589C98.1259 142.948 99.5408 140.736 100.726 138.919C102.048 136.892 103.722 135.158 104.907 133.484C106.193 131.668 107.485 130.141 110.267 127.078C110.972 125.96 111.528 125.12 112.224 124.216C112.506 123.727 112.644 123.175 113.204 121.771" stroke="#1A489E" stroke-width="2" stroke-linecap="round"/>
<path d="M98.3679 142.767C97.816 143.599 96.6329 145.033 94.7472 146.156C92.7005 147.375 89.6756 149.072 86.5963 151.309C84.8082 152.608 82.8354 153.956 81.0188 154.867C78.5354 156.113 75.5855 158.003 73.564 159.324C72.6422 159.927 72.0944 160.65 71.8853 161.484C71.7817 161.897 71.8142 162.318 72.0212 162.669C72.9771 164.291 75.4266 165.245 77.5903 166.572C79.533 167.764 82.1079 169.978 84.558 172.283C85.1852 172.775 86.013 173.189 86.5085 173.609C87.0039 174.029 87.1419 174.443 87.2841 174.869" stroke="#1A489E" stroke-width="2" stroke-linecap="round"/>
<path d="M101.536 206.639C101.536 208.583 101.224 209.146 99.3469 217.759C98.6572 220.923 98.8536 222.667 98.6445 225.504C98.1825 231.774 98.4355 236.327 98.2264 240.817C98.0368 244.89 98.1553 252.62 98.0864 256.876C97.9767 263.641 97.4613 267.538 97.2501 270.049C96.9232 273.937 97.4529 279.805 98.2912 281.411C99.1508 283.057 101.768 283.016 103.584 283.574C104.005 283.715 104.419 283.852 104.839 283.993C105.259 284.133 105.673 284.271 106.517 284.413" stroke="#1A489E" stroke-width="2" stroke-linecap="round"/>
<path d="M130.04 218.252C129.902 219.222 129.512 220.568 128.818 223.29C128.199 225.716 126.87 228.788 126.031 232.275C124.97 236.692 122.697 243.806 121.917 248.445C121.493 250.971 121.15 253.732 120.803 256.322C120.551 258.2 120.314 262.638 119.898 265.729C119.573 268.145 119.059 270.046 118.643 272.279C118.433 273.406 118.223 277.685 118.499 283.33C118.594 285.266 119.327 285.249 119.818 285.318C121.985 285.622 124.486 285.943 126.508 286.501C126.999 286.641 127.413 286.779 127.833 286.919C128.254 287.059 128.667 287.197 129.512 287.339" stroke="#1A489E" stroke-width="2" stroke-linecap="round"/>
<path d="M53 286.921C53.138 287.059 53.2759 287.197 59.9698 287.199C66.6636 287.202 79.9091 287.064 104.738 288.165C129.567 289.267 165.579 291.613 184.544 292.959C203.509 294.305 204.337 294.581 205.108 294.792C207.71 295.504 209.362 296.12 211.8 296.814C213.966 297.232 215.634 298.344 217.308 298.835C217.729 299.042 218.143 299.456 219.405 299.883" stroke="#1A489E" stroke-width="2" stroke-linecap="round"/>
<path d="M138.293 162.744C139.125 162.882 141.621 163.162 144.069 162.815C145.81 162.569 147.759 162.326 151.727 161.632C154.156 161.207 156.397 160.796 158.356 159.96C159.917 159.293 161.974 158.848 164.692 158.078C167.751 157.212 169.642 156.197 176.591 153.835C180.164 152.62 182.88 151.874 185.806 150.833C187.005 150.406 189.837 149.929 197.39 148.194C202.698 146.975 211.152 145.769 215.832 144.921C222.799 143.657 226.906 143.093 231.858 142.399C237.742 141.575 240.578 141.563 242.741 141.352C243.233 141.283 243.647 141.145 244.343 141.074C245.039 141.003 246.005 141.003 247 141.003" stroke="#1A489E" stroke-width="2" stroke-linecap="round"/>
<path d="M246.999 141.003C246.999 136.86 246.723 127.089 246.165 124.009C245.779 121.878 245.327 119.688 244.217 116.21C243.41 113.682 242.818 111.744 241.986 109.24C240.619 105.125 240.033 103.106 239.128 100.111C238.348 97.5284 237.525 95.0285 235.995 89.4572C235.195 86.546 233.628 80.6959 233.133 74.6125C232.92 72.0055 232.508 70.0761 232.296 63.2631C232.178 59.4519 231.529 56.1448 230.835 52.7958C230.206 49.759 229.857 42.2554 229.441 37.2528C229.201 34.3743 228.745 31.6105 227.839 29.7249C226.865 27.6953 226.93 24.5111 226.514 22.199C226.374 21.7098 226.236 21.1579 226.165 20.4597C226.094 19.7615 226.094 18.9336 225.676 17.6626" stroke="#1A489E" stroke-width="2" stroke-linecap="round"/>
<path d="M225.259 17.6626C223.591 17.6626 221.922 17.9385 220.11 18.4277C217.677 19.0842 214.823 19.1929 209.812 19.473C203.34 19.8348 199.78 20.5893 195.588 21.2834C191.847 21.9029 186.275 22.2617 180.75 22.9558C175.82 23.5751 173.289 23.792 170.983 24.0031C169.045 24.1805 167.151 24.7704 164.297 25.1174C161.299 25.482 157.961 26.3006 155.166 26.5118C153.29 26.6534 151.405 27.5549 149.172 27.7661C146.923 27.9788 144.991 28.6671 142.832 29.2984C140.331 30.0294 137.474 30.4817 134.543 30.8308C130.122 31.3574 128.267 32.1541 126.524 32.7122C124.524 33.3523 122.28 33.8265 119.211 34.4536C116.893 34.9272 115.306 35.4989 111.758 36.4731C108.964 37.2405 107.362 38.0075 104.993 38.9127C103.032 39.6623 100.263 40.7921 97.3985 41.5614C95.1789 42.1576 93.2886 42.8826 91.4029 43.93C89.3978 45.0437 87.293 45.2574 85.5495 46.0205C83.5669 46.8882 81.5817 47.8998 79.28 48.6692C76.6383 49.5521 74.7499 50.5506 73.0754 51.1778C71.2919 51.8458 69.7326 52.6411 68.0581 53.5463C67.6379 53.7575 67.224 53.8954 66.8038 54.1045C66.3836 54.3136 65.9697 54.5895 64.707 54.8738" stroke="#1A489E" stroke-width="2" stroke-linecap="round"/>
<path d="M64.2891 54.874C64.565 56.12 65.4012 58.6286 66.3064 60.6501C67.1901 62.6235 67.9098 65.1761 69.1621 68.0338C70.0419 70.0418 70.5606 72.5598 71.2547 74.8656C71.8035 76.6891 72.3668 79.8014 73.1361 84.0556C73.809 87.7766 74.4573 91.0901 74.8106 97.4265C75.0719 102.113 75.4357 105.456 75.9939 110.323C76.3633 113.544 76.69 116.603 77.1792 119.183C77.5846 121.32 77.6684 123.292 78.4314 125.178C79.2263 127.143 79.6167 128.87 79.8969 130.751C80.3162 133.568 81.5651 135.417 81.9874 137.441C82.5779 140.271 83.7978 142.107 84.703 144.34C85.4702 146.435 86.1684 147.689 86.3775 148.592C86.4486 149.081 86.4485 149.633 86.4485 150.202" stroke="#1A489E" stroke-width="2" stroke-linecap="round"/>
<path d="M86.4453 71.598C87.2773 71.1841 88.9456 69.2399 94.7844 63.3969C96.8813 61.2984 105.051 61.5635 110.75 61.9105C117.089 62.2966 119.601 61.0116 121.976 60.1733C124.208 58.9169 126.985 58.0849 129.086 57.3845C129.506 57.2445 129.92 57.1065 130.346 56.9644" stroke="#1A489E" stroke-width="2" stroke-linecap="round"/>
<path d="M173.832 79.9602C174.802 79.6843 176.75 78.0202 178.563 75.9276C179.924 74.3566 180.798 72.8567 181.492 72.2295C182.229 71.5637 184.134 73.1201 186.089 74.0357C188.363 75.1012 190.824 73.4127 193.123 72.9236C197.156 72.0656 199.186 73.9646 202.667 73.7619C206.766 73.523 207.556 69.9341 208.183 68.2596C208.348 67.8201 208.668 67.4255 209.156 67.2123C211.457 66.8611 213.125 66.5809 214.518 66.7879C215.082 66.9949 215.358 67.4088 215.642 68.2533" stroke="#1A489E" stroke-width="2" stroke-linecap="round"/>
<path d="M183.867 103.792C185.117 103.378 187.061 101.986 188.878 100.522C190.417 99.2825 194.98 99.1926 199.111 99.5396C206.001 100.118 207.967 98.2226 209.783 97.5223C210.617 97.2443 211.458 96.8262 212.292 96.2701C212.712 95.9899 213.126 95.714 213.553 95.4297" stroke="#1A489E" stroke-width="2" stroke-linecap="round"/>
<path d="M130.57 77.8692C130.984 77.1752 131.045 76.2052 132.367 74.8777C133.853 73.3838 134.666 71.1879 135.782 69.5134C136.899 67.8389 140.011 65.7892 141.128 64.1147C142.443 62.141 143.162 60.4594 145.395 58.6427C147.392 57.0173 148.739 55.5759 150.483 54.1126C152.28 52.6042 154.451 51.5371 156.267 50.3476C158.386 48.9607 161.287 48.464 162.052 48.4619C162.428 48.4609 162.679 49.0117 162.752 49.4319C163.069 51.2496 162.127 56.5041 161.642 59.9535C161.333 62.1496 160.179 63.6453 159.067 65.4578C157.403 68.1687 155.17 70.1928 153.075 72.3565C151.529 73.9532 149.868 75.3522 148.336 76.9578C146.935 78.4257 145.411 79.3995 143.946 80.9277C141.723 83.2453 140.394 84.6927 138.72 85.255C137.122 85.7915 135.795 82.8948 134.468 81.2203C133.704 80.3862 132.864 79.6838 132.099 79.0587C131.748 78.7096 131.472 78.2957 131.188 77.8692" stroke="#1A489E" stroke-width="2" stroke-linecap="round"/>
<path d="M135.848 71.5049C137.017 71.8801 140.641 74.1426 143.596 76.047C144.055 76.4279 144.442 76.8031 144.835 77.1839C145.228 77.5648 145.615 77.94 146.405 78.895" stroke="#1A489E" stroke-width="2" stroke-linecap="round"/>
<path d="M149.164 56.1279C149.996 56.4039 152.216 57.792 154.522 59.0505C155.427 59.6066 156.13 60.3048 156.755 61.0009C157.104 61.2831 157.518 61.4211 158.78 62.3995" stroke="#1A489E" stroke-width="2" stroke-linecap="round"/>
<path d="M156.273 51.1108C157.101 51.3868 157.942 51.8049 158.776 52.292C159.61 52.6411 160.45 53.0592 161.284 53.5463C161.705 53.7574 162.119 53.8954 162.545 54.0376" stroke="#1A489E" stroke-width="2" stroke-linecap="round"/>
</svg>
