<svg width="465" height="400" viewBox="0 0 465 400" fill="none" xmlns="http://www.w3.org/2000/svg">
<path d="M3.99263 84.2488C3.99263 85.2387 3.99263 86.2287 3.99263 119.408C3.99263 152.586 3.99263 217.924 3.72701 253.068C3.43891 291.188 2.38285 303.151 2.11724 318.135C1.95639 327.209 0.773075 348.059 1.03869 375.801C1.14813 387.232 2.38285 390.718 4.50775 393.718C11.9483 404.222 42.4341 396.238 73.382 393.748C84.3576 392.865 93.5605 392.743 112.218 390.013C126.647 387.902 151.062 383.818 164.713 381.778C178.363 379.738 180.488 379.738 197.785 378.006C215.082 376.273 247.487 372.809 267.368 371.024C302.768 367.845 315.677 367.739 332.588 366.494C355.871 364.78 389.115 363.239 412.232 361.994C436.147 360.706 452.041 359.759 453.112 355.274C455.493 345.3 457.402 339.27 458.215 315.091C458.511 306.274 459.559 297.301 460.356 283.847C460.802 276.307 462.746 267.422 463.567 220.264C464.388 173.106 464.388 87.9686 460.404 44.1102C456.42 0.251755 448.452 0.251756 437.441 1.24172C412.53 3.4814 394.669 6.25154 386.91 6.74652C365.462 8.11478 339.985 12.2513 315.041 15.2362C297.917 17.2854 268.221 21.221 247.664 23.2459C225.516 25.4276 212.813 27.2508 200.425 29.9882C195.056 31.1748 190.211 31.7506 184.867 32.2456C177.267 32.9495 149.645 38.2154 112.902 43.9602C86.351 48.1115 57.7913 55.7198 43.1987 59.9871C35.6554 62.193 27.109 64.2395 20.1145 66.2419C13.6674 68.2443 8.30682 70.2393 5.35289 72.4817C4.52385 73.7341 5.05508 75.2191 5.6024 78.249" stroke="#1A489E" stroke-width="2" stroke-linecap="round"/>
</svg>
