<svg width="524" height="573" viewBox="0 0 524 573" fill="none" xmlns="http://www.w3.org/2000/svg">
<path d="M199.698 5.53839C190.097 10.3134 185.558 14.7064 180.322 24.2563C171.943 39.9184 168.975 64.5574 173.688 79.8374C177.005 90.1514 193.937 127.969 204.062 148.024C218.551 176.483 223.962 191.954 224.486 207.807C225.009 219.076 224.311 223.087 221.518 228.817C216.805 237.985 215.059 239.704 208.077 242.187C197.778 246.007 192.192 241.805 182.765 223.278C178.052 214.492 173.514 205.897 172.292 204.369C167.753 198.066 160.596 194.819 151.694 194.819C143.489 194.819 142.093 195.392 135.285 203.032C126.208 212.773 122.891 223.469 126.033 233.21C130.572 248.299 138.252 254.602 164.611 264.725C183.813 272.365 186.082 276.758 172.641 280.769C150.472 287.454 133.539 282.87 97.754 261.096C90.2479 256.512 85.3602 255.175 75.5847 254.411C51.3207 252.692 36.4829 261.669 25.6601 284.398C16.7575 303.498 16.5829 315.722 25.1364 329.474C28.2785 334.822 32.9917 340.17 35.6101 341.507C38.054 342.653 42.0689 344.754 44.3382 345.9C46.7821 347.237 55.161 348.192 63.1908 348.001C76.1084 348.001 79.9487 347.046 99.4996 339.024C117.829 331.384 123.24 329.856 133.539 329.856C154.836 329.856 177.18 343.799 181.544 359.843C186.606 377.606 185.209 417.716 179.274 428.03C178.227 429.94 169.324 435.097 159.723 439.49C135.983 450.186 124.287 463.556 121.494 483.42C120.971 487.24 120.098 491.633 119.4 493.352C118.178 497.172 125.684 514.744 131.794 522.193C136.681 528.114 148.901 532.889 158.676 532.889C170.895 532.698 178.227 526.968 194.81 504.621C213.837 479.027 221.867 472.724 235.658 472.915C249.099 473.106 278.774 483.802 291.168 492.779C309.148 505.958 311.243 509.396 312.465 528.687C314.21 554.663 322.24 565.359 339.871 565.359C349.472 565.359 356.28 560.584 362.215 549.315C370.07 534.799 367.626 520.092 354.359 501.947C345.457 489.532 343.187 480.746 345.806 468.522C348.599 456.298 353.661 445.602 357.676 443.119C359.596 442.164 362.04 440.063 363.437 438.726C369.197 432.614 384.908 427.075 397.127 426.884C408.299 426.884 410.743 427.648 426.453 436.243C445.83 446.748 457.002 448.658 471.665 443.883C478.123 441.782 481.091 439.299 485.28 432.423C492.961 420.39 492.438 408.357 483.709 392.886C478.473 383.718 476.029 381.426 468.697 378.37C463.809 376.46 454.907 374.359 448.623 373.786C420.693 371.494 414.409 366.337 415.98 347.237C416.852 337.114 417.9 334.44 427.152 321.452C444.259 297.195 445.306 295.285 448.797 287.454C453.685 275.803 453.161 264.152 446.877 255.175C444.084 251.164 440.069 246.389 437.8 244.861C432.214 240.468 420.518 240.468 406.379 244.861C386.479 250.973 376.529 246.389 376.703 231.3C376.878 217.739 384.209 208.953 404.633 197.684C427.326 185.078 446.353 160.439 447.924 141.339C448.623 134.272 447.924 131.407 443.909 125.295C436.403 113.835 430.817 110.206 419.296 109.251C401.316 107.914 396.08 112.88 380.544 146.687C374.434 159.866 367.801 171.517 365.531 173.236C359.945 177.056 348.773 178.584 344.06 175.91C338.3 172.472 339.522 165.023 349.123 147.069C358.898 128.733 360.12 120.138 354.359 109.824C349.297 100.847 337.427 97.6004 328.35 102.757C318.051 108.678 314.21 118.228 314.21 138.474C314.036 172.472 308.624 180.876 286.804 181.64C270.57 182.213 256.954 176.101 252.241 166.36C249.273 159.866 244.037 132.935 245.258 129.497C245.782 128.16 246.48 123.576 246.83 119.374C247.179 115.172 249.623 103.139 252.241 92.6344C258.176 68.5684 259.049 62.6474 258.874 49.4684C258.7 30.7504 247.702 10.8864 234.087 4.58337C225.708 0.763367 208.426 1.14539 199.698 5.53839Z" fill="#1A489E"/>
</svg>
