<svg width="34" height="42" viewBox="0 0 34 42" fill="none" xmlns="http://www.w3.org/2000/svg">
<path d="M14.8399 1.61062C17.9671 7.06954 22.5919 16.8516 27.3016 25.6964C29.5999 30.0125 29.7273 33.1429 30.3628 36.0036C30.7727 37.849 19.1186 28.3312 6.22272 19.6818C1.66668 16.6261 1.00962 16.473 1.00018 16.3692C0.945446 15.7672 13.2606 14.4519 29.312 12.1071C34.3314 11.3739 33.1125 12.3819 32.0554 12.9986C28.8038 14.8956 25.9771 17.8775 15.9285 29.4487C9.58603 36.7521 5.40788 41.0931 4.46404 40.9985C2.48227 40.7998 5.80429 33.204 8.63264 25.8827C12.1028 16.7112 14.2107 7.32599 15.359 4.16605C15.6768 3.44858 15.8844 2.84406 16.7276 1" stroke="#1A489E" stroke-width="2" stroke-linecap="round"/>
</svg>
