<svg width="36" height="37" viewBox="0 0 36 37" fill="none" xmlns="http://www.w3.org/2000/svg">
<path d="M16.2385 1.65878C19.0713 5.36113 25.2243 14.584 28.3041 21.6132C30.1495 25.8252 31.8252 28.6622 31.9405 29.3243C33.0303 35.5823 17.3584 23.6225 7.7106 20.4472C4.93552 19.5339 3.51087 18.5697 1.86722 17.9142C1.04105 17.5847 0.440957 16.8239 1.84416 16.0531C6.35784 13.5738 14.0052 12.2124 20.2571 9.8013C24.3035 8.24072 28.2876 5.40724 32.8958 2.99281C34.6612 2.06782 35.33 1.88277 34.2529 3.18386C27.1208 11.799 22.1939 18.2996 17.2431 25.7899C15.426 28.5391 14.4862 30.8559 13.7187 32.4996C13.162 25.6845 14.0382 6.28342 14.3709 3.09822C14.4796 2.32415 14.697 1.67196 14.9209 1" stroke="#1A489E" stroke-width="2" stroke-linecap="round"/>
</svg>
