<svg width="106" height="92" viewBox="0 0 106 92" fill="none" xmlns="http://www.w3.org/2000/svg">
<path d="M18.5945 1.36978C18.29 1.31929 17.5787 1.21679 16.4344 1.08982C13.2602 0.737608 12.3253 1.52276 11.5857 1.70021C10.7973 1.88936 10.0306 2.33661 9.41792 2.59285C8.55498 2.95376 7.42994 3.56046 6.58854 3.99416C5.94496 4.32589 5.34022 4.98624 4.82774 5.67618C4.29695 6.39077 4.11332 7.17998 3.47768 8.60423C2.74941 10.236 2.58351 11.0045 2.48102 11.7694C2.29563 13.1528 2.12457 15.1839 2.0978 18.1862C2.08751 19.3403 2.63247 20.1313 3.0394 21.1762C3.57024 22.5392 4.31219 23.09 4.97689 23.7279C5.64765 24.3716 6.24893 25.1797 6.96564 25.5652C7.92217 26.0797 9.6145 26.3546 10.7619 26.5856C11.6321 26.7608 12.5227 26.6621 13.7649 26.7385C16.063 26.8801 18.2808 26.5626 19.7059 26.1304C21.7362 25.5147 22.7678 24.6779 24.8085 22.7435C25.731 21.8691 26.1395 21.2603 26.5227 20.6476C26.8698 20.0927 26.9564 19.4245 27.0336 18.7614C27.1352 17.8898 27.2623 17.1818 27.2891 13.8507C27.3001 12.484 27.0604 11.4696 26.9579 10.5272C26.8226 9.28331 26.3965 8.40994 26.2443 7.79725C26.0843 7.15331 25.6836 6.57417 25.2254 5.96149C24.8007 5.39352 24.3588 4.63744 23.8233 3.97274C23.5939 3.66754 23.3384 3.36005 23.0332 3.05486C22.8794 2.90111 22.728 2.74966 22.419 2.44064" stroke="#1A489E" stroke-width="2" stroke-linecap="round"/>
<path d="M10.792 27.2235C10.792 27.6794 10.691 28.6983 10.3346 29.8961C10.0647 30.8031 9.62322 32.4126 9.36468 33.5187C9.14244 34.4694 8.90727 35.8853 8.778 36.9852C8.67849 37.832 8.54929 38.642 8.42155 39.4582C8.20022 40.8723 7.93737 41.5486 7.73314 42.5943C7.56904 43.4345 7.47843 44.5562 7.17247 45.6539C6.96926 46.3829 6.81449 47.108 6.40833 48.7869C6.1482 49.8622 6.04959 50.6755 5.89737 51.6201C5.70371 52.822 5.59065 53.5331 5.31146 54.7042C5.06836 55.7239 4.97873 57.5504 5.3084 58.7605C5.5487 59.6425 6.35249 60.2123 7.06615 60.8005C8.29936 61.8169 9.4121 62.2041 10.177 62.51C10.895 62.7972 11.5538 62.715 13.7828 62.842C15.4493 62.9369 18.5818 62.868 20.4466 62.7923C23.5094 62.6679 24.0982 62.3081 25.1171 61.7995C26.0055 61.3559 26.5459 60.7294 27.1334 60.2436C27.6738 59.7968 27.7208 59.0466 27.8998 57.8021C28.3688 54.5411 27.6719 53.6922 27.3154 52.9021C26.8344 51.8358 26.702 50.7856 26.4228 50.046C26.1764 49.3932 25.7351 48.6959 25.3267 47.4981C25.0306 46.63 24.5633 45.8413 24.1541 44.9479C23.4502 43.4112 23.1834 42.7297 22.9042 41.938C22.6626 41.2527 22.4705 40.334 22.2411 39.592C21.993 38.79 21.6567 37.1795 21.4754 35.9465C21.3476 35.1801 21.2467 34.6706 21.0937 33.0521C21.0417 31.6355 21.0417 29.0104 21.0417 26.3057" stroke="#1A489E" stroke-width="2" stroke-linecap="round"/>
<path d="M22.2656 35.6374C22.5685 35.9418 23.4864 36.4512 24.0991 36.8345C24.8052 37.2761 26.4879 37.776 27.5404 38.0591C28.0551 38.1975 29.546 38.3375 32.3402 38.7199C36.0111 39.2224 38.3271 38.7995 38.6323 38.6978C39.442 38.4278 40.4673 38.0361 41.2826 37.8564C42.3667 37.6174 42.9149 37.1182 43.5529 36.735C43.9338 36.6073 44.2428 36.4038 44.4715 36.1743C44.5993 36.0963 45.9415 34.9962 46.0976 34.8433" stroke="#1A489E" stroke-width="2" stroke-linecap="round"/>
<path d="M56.989 18.8097C56.4321 18.4058 55.2083 17.081 54.3149 15.9581C53.6089 15.0708 53.1155 13.9694 52.6565 13.2542C52.0493 12.3079 51.4832 11.9776 51.2032 11.9003C50.1602 11.6125 49.6979 14.0642 49.1892 14.9561C48.6873 15.8362 48.0182 16.8148 47.4552 17.634C46.8531 18.5101 46.4364 19.3145 46.0776 20.006C45.7535 20.6308 44.9586 21.4042 44.3191 22.1729C43.8388 22.7504 43.3767 23.497 42.7893 24.2887C42.2368 25.0332 41.694 26.0977 41.3352 26.7876C40.888 27.6478 40.2651 28.2914 39.8567 28.9041C39.4482 29.5168 39.1422 30.1272 38.811 30.7651C38.4373 31.485 38.1219 31.9645 38.1211 32.2192C38.1193 32.8132 39.2401 32.8319 40.2078 33.1378C41.3809 33.5088 42.2477 33.3428 43.0394 33.495C43.7328 33.6284 44.4415 33.7497 45.0542 33.8522C45.7173 34.2087 46.4302 34.5147 47.0429 34.7189C47.1967 34.7701 47.3481 34.8206 47.6571 34.8726" stroke="#1A489E" stroke-width="2" stroke-linecap="round"/>
<path d="M57.2967 19.2686C57.0427 19.726 56.7367 20.3364 56.2533 21.076C55.8307 21.7226 55.4119 22.3251 54.7495 23.0648C54.2242 23.6513 53.8821 24.4148 53.4737 25.2065C53.094 25.9423 52.5053 26.6086 52.1221 27.2212C51.7647 27.7926 51.4344 28.4443 51.0512 29.057C50.6938 29.6284 50.3636 30.3811 49.9804 31.0458C49.6438 31.6296 49.3937 32.2688 49.0372 32.8815C48.6793 33.4942 48.4758 33.9532 48.2723 34.2584C48.1698 34.4121 48.0689 34.5636 47.9648 34.8726" stroke="#1A489E" stroke-width="2" stroke-linecap="round"/>
<path d="M57.757 19.2685C58.2649 19.319 59.3816 19.4215 60.8365 19.2945C62.3429 19.163 63.3622 18.9625 64.28 18.8356C65.5976 18.6533 68.845 18.5556 71.0862 18.3766C71.5672 18.3382 72.3758 18.3506 72.7666 18.4263C73.1575 18.5021 73.107 18.6535 73.0305 18.8073C72.7088 19.4539 72.0392 20.5352 71.3998 21.3062C70.7054 22.1434 69.8975 23.3439 69.3598 24.0338C68.7544 24.8105 68.1627 25.5376 67.7022 26.1503C67.2598 26.739 66.7859 27.3734 66.0967 28.1131C65.6058 28.64 64.6503 29.968 63.9542 30.918C63.3537 31.7376 62.8084 32.4218 62.3479 33.1614C61.9245 33.8415 61.4316 34.5635 60.9458 35.3284C60.422 36.1533 60.0027 36.8582 59.4925 37.8518C59.1167 38.5837 58.6259 39.3059 58.1157 39.9186C57.9972 40.0609 57.962 40.2238 57.8602 40.327C57.7585 40.4303 57.607 40.4808 57.4281 40.4311C56.3589 40.1341 55.6183 39.055 54.7019 38.5976C53.079 37.7875 52.4577 37.1183 51.793 36.8368C51.0881 36.5383 50.417 36.0474 49.8043 35.6389C49.6505 35.5364 49.4991 35.4355 49.3453 35.3582C49.1916 35.281 49.0401 35.2305 48.5781 35.0255" stroke="#1A489E" stroke-width="2" stroke-linecap="round"/>
<path d="M36.9522 43.7452C36.9522 43.8461 37.659 44.1001 40.8754 44.406C43.3759 44.6439 47.6762 44.5101 50.0129 44.4848C53.2708 44.4496 54.4899 44.2041 56.2676 44.0771C60.6522 43.7639 61.475 43.8981 62.3432 43.7712C63.0952 43.6612 63.7223 43.6947 67.0818 43.6182C70.289 43.5452 76.5497 43.5922 79.8503 43.6174C83.1508 43.6427 83.3023 43.6931 84.8443 43.7192C86.3864 43.7452 89.3144 43.7452 90.8985 43.7704C92.6355 43.7981 95.0114 43.8981 98.478 43.9234C100.793 43.9402 102.425 44.1521 104.18 44.2293C104.569 44.2464 104.72 44.3051 104.798 45.8961C104.876 47.4871 104.876 50.617 104.749 52.2547C104.623 53.8924 104.371 53.9428 104.165 53.9941C103.503 54.159 102.789 54.2488 100.956 54.3261C99.4225 54.3907 97.5876 54.3528 94.6381 54.2503C92.6267 54.1804 91.3154 53.8939 89.5079 53.8166C88.4525 53.7715 87.4389 53.5879 85.7347 53.5107C84.1234 53.4376 82.6965 53.3325 79.1833 53.256C75.9736 53.1861 69.8645 53.23 66.6167 53.2047C63.3689 53.1795 63.167 53.129 60.564 53.103C57.9611 53.077 52.9632 53.077 50.0351 53.1275C46.3977 53.1902 44.6625 53.3829 43.0569 53.4082C41.9945 53.4249 41.3917 53.6369 38.6205 53.7141C37.8696 53.7351 36.9599 53.8419 35.762 53.7662C35.3159 53.7379 35.2205 53.539 35.118 53.36C34.6866 52.6066 34.6575 51.8562 34.5305 51.1165C34.5045 50.7853 34.4541 50.3769 34.3776 49.0352C34.3516 47.946 34.3516 46.0276 34.3516 44.0511" stroke="#1A489E" stroke-width="2" stroke-linecap="round"/>
<path d="M95.3895 54.7598C95.3895 56.0234 95.2886 58.9851 95.2113 60.8973C95.1543 62.3079 95.0331 63.1722 94.9566 65.7491C94.8846 68.1737 94.9306 72.8696 94.9558 75.4649C94.9901 78.984 95.2366 79.6925 95.4905 81.1428C95.7169 82.4355 95.8485 83.7679 95.9754 84.5887C96.0698 85.1989 96.2554 85.8118 96.3831 87.542C96.4104 87.9114 96.6103 88.0055 96.7641 88.0828C97.4655 88.4352 98.4461 88.3635 100.202 88.4407C100.746 88.4647 101.099 88.619 101.531 88.6954C101.759 88.7358 102.014 88.7215 102.144 88.3176C102.517 87.1577 102.324 86.1223 102.401 84.9841C102.589 82.1862 102.376 80.0551 102.3 79.2183C102.164 77.7312 102.223 76.587 102.147 74.5899C102.078 72.7958 102.121 69.4122 102.095 67.5436C101.968 64.8091 101.917 63.8896 101.841 62.2711C101.815 60.8545 101.815 58.2294 101.815 55.5247" stroke="#1A489E" stroke-width="2" stroke-linecap="round"/>
<path d="M36.4899 54.1482C36.4899 55.7163 36.3889 58.6826 36.2864 59.5247C36.1741 60.4479 35.93 61.6351 35.8527 63.3975C35.8224 64.0894 35.725 66.3163 35.7502 69.3492C35.7595 70.4639 35.826 70.716 35.852 73.2693C35.878 75.8225 35.878 80.669 35.9537 83.418C36.0638 87.416 36.5909 88.1069 36.8456 88.6691C37.1515 89.3443 38.4756 88.9758 41.653 89.0531C42.3524 89.0701 42.554 89.1288 42.6581 87.5646C42.7621 86.0003 42.7621 82.8199 42.7873 81.0552C42.8264 78.3211 42.9656 77.0984 43.042 75.0997C43.1069 73.405 43.0681 70.3244 43.0933 68.637C43.1216 66.7464 43.221 64.4194 43.2463 61.1058C43.2597 59.3465 43.475 58.6398 43.6792 57.9751C43.9081 57.23 43.9339 56.1921 44.1129 55.4516C44.1389 55.2222 44.1389 54.9193 44.1642 54.6875C44.1894 54.4557 44.2399 54.3043 44.2919 53.8423" stroke="#1A489E" stroke-width="2" stroke-linecap="round"/>
<path d="M1 68.8341C2.66749 68.8341 6.24723 68.7332 7.6493 68.5542C8.74225 68.4146 9.86675 68.3752 11.574 68.1212C12.5559 67.9752 13.8932 67.9683 16.3539 67.79C18.0043 67.6705 20.4805 67.6623 21.9063 67.611C23.6369 67.5488 25.8655 67.4573 28.8226 67.533C29.8637 67.5597 29.9623 67.7602 30.0395 67.9392C30.4197 68.82 30.3203 69.9019 30.7532 72.8506C30.9482 74.1788 30.9842 74.8983 31.2381 76.8832C31.4138 78.2564 31.4431 80.9012 31.5954 82.5481C31.6466 82.7538 31.6971 82.9053 31.7231 83.6648C31.7491 84.4244 31.7491 85.7874 31.7491 87.1918" stroke="#1A489E" stroke-width="2" stroke-linecap="round"/>
<path d="M1.46094 68.9873C1.51142 69.2917 1.71489 70.0031 1.79214 71.0487C1.82092 71.4383 1.91988 73.8093 1.94512 77.2758C1.95941 79.2381 2.12334 80.1013 2.19983 82.0235C2.22584 83.6933 2.22584 86.7728 2.27632 88.435C2.32681 90.0971 2.42777 90.2485 2.5318 90.5576" stroke="#1A489E" stroke-width="2" stroke-linecap="round"/>
<path d="M28.3828 58.8906C28.4838 58.9916 28.6872 59.0941 29.7245 59.1706C32.2257 59.1966 34.193 59.2471 34.7277 59.3488C34.9594 59.4001 35.1109 59.4505 35.5729 59.6555" stroke="#1A489E" stroke-width="2" stroke-linecap="round"/>
<path d="M44.293 60.8794C45.5061 60.8794 48.0624 60.9804 49.8951 61.0576C50.8849 61.0993 52.0858 61.3383 53.3655 61.4653C54.5379 61.5816 55.3535 61.6443 56.2974 61.7713C57.2756 61.9029 58.0597 61.8478 58.3144 62C58.8436 62.3162 58.7741 63.272 58.8514 67.1363C58.872 68.17 58.9791 70.4958 59.0043 73.7841C59.0145 75.1057 59.1321 75.8654 59.1826 76.859C59.2331 77.2468 59.334 77.3982 60.8501 77.4763C62.3661 77.5543 65.2941 77.5543 68.3109 77.5543" stroke="#1A489E" stroke-width="2" stroke-linecap="round"/>
<path d="M14.3477 62.9834C14.8035 63.2373 16.3401 63.3758 18.66 63.5051C19.8843 63.5733 20.5776 64.0397 21.7472 64.2187C23.9706 64.559 24.7081 64.4987 25.7017 64.6012C26.4343 64.6768 27.1038 64.9576 27.7685 65.0601C28.4903 65.1714 29.6494 65.4686 30.9283 65.7225C31.7865 65.8929 32.813 65.9275 33.7844 66.0545C34.0399 66.0805 34.3428 66.0805 34.5746 66.131C34.8063 66.1815 34.9578 66.2824 35.4198 66.3865" stroke="#1A489E" stroke-width="2" stroke-linecap="round"/>
<path d="M43.8359 66.9985C44.1404 67.049 44.7508 67.2525 45.4139 67.4315C46.2554 67.6586 47.2964 67.6105 48.1171 67.7627C48.4334 67.8213 48.6793 68.0679 48.8575 68.3731C49.0244 68.6588 49.0373 70.2983 49.0625 72.6175C49.0928 75.3999 49.2912 78.8759 49.3685 79.9216C49.4497 81.0206 49.5972 82.5475 49.8014 83.3392C49.9689 83.9884 50.2091 84.6892 50.4133 85.3792C50.6356 86.13 51.075 86.73 51.6357 87.1652C52.228 87.625 53.8715 87.4979 55.0005 87.7771C55.8717 87.9926 56.6832 88.1099 57.6256 88.2621C58.9259 88.4158 59.9983 88.4663 60.5575 88.5428C60.8642 88.5688 61.2176 88.5688 61.5817 88.7218" stroke="#1A489E" stroke-width="2" stroke-linecap="round"/>
<path d="M2.75391 73.4477C3.12429 73.5091 6.44654 73.6338 9.04479 73.2327C11.0028 72.7032 11.8701 72.6418 15.438 72.5487C18.6375 72.5171 24.6566 72.5171 30.672 72.5171" stroke="#1A489E" stroke-width="2" stroke-linecap="round"/>
</svg>
