<svg width="300" height="301" viewBox="0 0 300 301" fill="none" xmlns="http://www.w3.org/2000/svg">
<path d="M89.1482 141.655C88.6093 141.565 87.3498 141.384 85.3239 141.159C79.7042 140.535 78.049 141.926 76.7395 142.24C75.3437 142.575 73.9863 143.366 72.9016 143.82C71.3738 144.459 69.382 145.533 67.8923 146.301C66.7529 146.888 65.6822 148.057 64.7749 149.279C63.8351 150.544 63.51 151.941 62.3847 154.463C61.0953 157.352 60.8016 158.712 60.6201 160.067C60.2919 162.516 59.9891 166.112 59.9417 171.427C59.9234 173.471 60.8883 174.871 61.6087 176.721C62.5485 179.134 63.8621 180.109 65.039 181.239C66.2265 182.378 67.291 183.809 68.56 184.492C70.2534 185.402 73.2496 185.889 75.281 186.298C76.8216 186.608 78.3984 186.433 80.5977 186.569C84.6664 186.819 88.593 186.257 91.1159 185.492C94.7105 184.402 96.5369 182.921 100.15 179.496C101.783 177.948 102.506 176.87 103.185 175.785C103.799 174.803 103.953 173.62 104.089 172.446C104.269 170.903 104.494 169.649 104.542 163.752C104.561 161.332 104.137 159.536 103.955 157.867C103.716 155.665 102.961 154.119 102.692 153.034C102.409 151.894 101.699 150.869 100.888 149.784C100.136 148.779 99.3537 147.44 98.4057 146.263C97.9995 145.723 97.5471 145.178 97.0068 144.638C96.7346 144.366 96.4665 144.098 95.9194 143.551" stroke="#1A489E" stroke-width="2" stroke-linecap="round"/>
<path d="M75.3346 187.428C75.3346 188.235 75.1558 190.039 74.5247 192.159C74.0469 193.765 73.2653 196.615 72.8076 198.573C72.4141 200.256 71.9978 202.763 71.7689 204.71C71.5927 206.21 71.364 207.644 71.1378 209.089C70.746 211.592 70.2806 212.79 69.919 214.641C69.6285 216.129 69.4681 218.115 68.9264 220.058C68.5666 221.349 68.2926 222.632 67.5735 225.605C67.113 227.509 66.9384 228.948 66.6689 230.621C66.326 232.749 66.1258 234.008 65.6315 236.081C65.2011 237.886 65.0425 241.12 65.6261 243.263C66.0516 244.824 67.4746 245.833 68.7381 246.874C70.9215 248.674 72.8915 249.359 74.2458 249.901C75.5169 250.409 76.6834 250.264 80.6296 250.489C83.5801 250.657 89.126 250.535 92.4276 250.401C97.8501 250.18 98.8927 249.543 100.696 248.643C102.269 247.858 103.226 246.748 104.266 245.888C105.223 245.097 105.306 243.769 105.623 241.566C106.454 235.792 105.22 234.289 104.589 232.891C103.737 231.003 103.502 229.143 103.008 227.834C102.572 226.678 101.791 225.444 101.068 223.323C100.543 221.786 99.716 220.39 98.9915 218.808C97.7453 216.087 97.273 214.881 96.7787 213.479C96.3509 212.266 96.0109 210.639 95.6046 209.326C95.1655 207.906 94.57 205.054 94.249 202.871C94.0229 201.514 93.8441 200.613 93.5733 197.747C93.4812 195.239 93.4812 190.591 93.4812 185.803" stroke="#1A489E" stroke-width="2" stroke-linecap="round"/>
<path d="M95.6484 202.324C96.1847 202.863 97.8098 203.765 98.8945 204.443C100.145 205.225 103.124 206.11 104.987 206.611C105.898 206.856 108.538 207.104 113.485 207.781C119.984 208.671 124.084 207.922 124.625 207.742C126.058 207.264 127.874 206.571 129.317 206.253C131.237 205.829 132.207 204.946 133.337 204.267C134.011 204.041 134.558 203.681 134.963 203.275C135.189 203.136 137.566 201.189 137.842 200.918" stroke="#1A489E" stroke-width="2" stroke-linecap="round"/>
<path d="M157.127 172.531C156.141 171.816 153.975 169.471 152.393 167.483C151.143 165.912 150.27 163.962 149.457 162.696C148.382 161.02 147.38 160.435 146.884 160.299C145.037 159.789 144.219 164.13 143.318 165.709C142.43 167.267 141.245 169 140.248 170.45C139.182 172.001 138.444 173.425 137.809 174.649C137.235 175.756 135.828 177.125 134.696 178.486C133.846 179.508 133.028 180.83 131.987 182.232C131.009 183.55 130.048 185.434 129.413 186.656C128.621 188.179 127.519 189.318 126.795 190.403C126.072 191.488 125.531 192.568 124.944 193.698C124.282 194.972 123.724 195.821 123.723 196.272C123.72 197.324 125.704 197.357 127.417 197.899C129.494 198.555 131.029 198.262 132.43 198.531C133.658 198.767 134.913 198.982 135.997 199.164C137.171 199.795 138.434 200.336 139.518 200.698C139.791 200.789 140.059 200.878 140.606 200.97" stroke="#1A489E" stroke-width="2" stroke-linecap="round"/>
<path d="M157.67 173.344C157.22 174.154 156.679 175.234 155.823 176.544C155.075 177.689 154.333 178.755 153.16 180.065C152.23 181.103 151.625 182.455 150.902 183.857C150.229 185.159 149.187 186.339 148.509 187.424C147.876 188.435 147.291 189.589 146.613 190.674C145.98 191.685 145.395 193.018 144.717 194.195C144.121 195.228 143.678 196.36 143.047 197.445C142.413 198.53 142.053 199.342 141.693 199.883C141.511 200.155 141.333 200.423 141.148 200.97" stroke="#1A489E" stroke-width="2" stroke-linecap="round"/>
<path d="M158.485 173.344C159.384 173.433 161.361 173.614 163.937 173.39C166.604 173.157 168.409 172.802 170.034 172.577C172.367 172.254 178.116 172.081 182.084 171.764C182.936 171.696 184.367 171.718 185.059 171.853C185.751 171.987 185.662 172.255 185.526 172.527C184.957 173.672 183.771 175.586 182.639 176.951C181.41 178.433 179.979 180.559 179.027 181.78C177.956 183.155 176.908 184.443 176.093 185.527C175.309 186.57 174.47 187.693 173.25 189.002C172.381 189.935 170.689 192.286 169.457 193.968C168.394 195.42 167.428 196.631 166.613 197.94C165.864 199.144 164.991 200.423 164.131 201.777C163.203 203.237 162.461 204.485 161.558 206.244C160.892 207.54 160.023 208.819 159.12 209.904C158.91 210.156 158.848 210.444 158.668 210.627C158.488 210.81 158.22 210.899 157.903 210.811C156.01 210.285 154.699 208.375 153.076 207.565C150.203 206.13 149.103 204.946 147.926 204.447C146.678 203.919 145.49 203.05 144.405 202.327C144.133 202.145 143.865 201.966 143.593 201.83C143.32 201.693 143.052 201.603 142.234 201.241" stroke="#1A489E" stroke-width="2" stroke-linecap="round"/>
<path d="M121.651 216.678C121.651 216.857 122.903 217.307 128.597 217.848C133.024 218.269 140.637 218.033 144.775 217.988C150.542 217.926 152.701 217.491 155.848 217.266C163.611 216.712 165.068 216.949 166.605 216.724C167.936 216.53 169.046 216.589 174.994 216.453C180.673 216.324 191.757 216.407 197.6 216.452C203.444 216.497 203.712 216.586 206.442 216.632C209.172 216.678 214.356 216.678 217.161 216.723C220.236 216.772 224.442 216.949 230.58 216.994C234.678 217.024 237.568 217.399 240.675 217.536C241.363 217.566 241.63 217.67 241.768 220.486C241.906 223.303 241.906 228.845 241.683 231.744C241.46 234.643 241.013 234.733 240.648 234.824C239.476 235.115 238.212 235.275 234.967 235.411C232.252 235.526 229.003 235.459 223.782 235.277C220.22 235.153 217.899 234.646 214.699 234.509C212.83 234.429 211.036 234.104 208.018 233.968C205.166 233.838 202.639 233.652 196.419 233.517C190.737 233.393 179.921 233.471 174.171 233.426C168.421 233.381 168.063 233.292 163.455 233.246C158.846 233.2 149.998 233.2 144.814 233.289C138.374 233.4 135.302 233.742 132.459 233.786C130.578 233.816 129.511 234.191 124.605 234.328C123.275 234.365 121.665 234.554 119.544 234.42C118.754 234.37 118.585 234.018 118.404 233.701C117.64 232.367 117.589 231.038 117.364 229.729C117.318 229.143 117.228 228.419 117.093 226.044C117.047 224.116 117.047 220.719 117.047 217.22" stroke="#1A489E" stroke-width="2" stroke-linecap="round"/>
<path d="M225.112 236.179C225.112 238.416 224.933 243.66 224.797 247.046C224.696 249.543 224.481 251.073 224.346 255.635C224.218 259.928 224.3 268.242 224.344 272.837C224.405 279.067 224.841 280.322 225.291 282.889C225.692 285.178 225.925 287.537 226.15 288.99C226.317 290.07 226.645 291.155 226.871 294.219C226.92 294.873 227.274 295.039 227.546 295.176C228.788 295.8 230.524 295.673 233.632 295.81C234.595 295.852 235.22 296.125 235.985 296.261C236.389 296.332 236.84 296.307 237.07 295.592C237.731 293.538 237.39 291.705 237.525 289.69C237.858 284.736 237.482 280.963 237.346 279.482C237.106 276.849 237.211 274.823 237.075 271.287C236.954 268.111 237.029 262.121 236.985 258.812C236.759 253.971 236.669 252.343 236.534 249.478C236.488 246.97 236.488 242.322 236.488 237.533" stroke="#1A489E" stroke-width="2" stroke-linecap="round"/>
<path d="M120.832 235.096C120.832 237.873 120.654 243.124 120.472 244.615C120.273 246.25 119.841 248.352 119.704 251.472C119.651 252.697 119.478 256.639 119.523 262.009C119.539 263.982 119.657 264.429 119.703 268.949C119.749 273.47 119.749 282.05 119.883 286.917C120.078 293.996 121.011 295.219 121.462 296.214C122.004 297.409 124.348 296.757 129.973 296.894C131.212 296.924 131.569 297.028 131.753 294.258C131.937 291.489 131.937 285.858 131.982 282.734C132.051 277.893 132.297 275.729 132.433 272.19C132.548 269.189 132.479 263.736 132.524 260.748C132.574 257.401 132.75 253.281 132.794 247.414C132.818 244.3 133.199 243.048 133.561 241.872C133.966 240.552 134.012 238.715 134.329 237.404C134.375 236.998 134.375 236.461 134.419 236.051C134.464 235.641 134.553 235.373 134.646 234.555" stroke="#1A489E" stroke-width="2" stroke-linecap="round"/>
<path d="M58 261.097C60.9522 261.097 67.29 260.919 69.7723 260.602C71.7073 260.355 73.6982 260.285 76.7208 259.835C78.4592 259.577 80.8268 259.564 85.1834 259.249C88.1054 259.037 92.4894 259.023 95.0137 258.932C98.0776 258.822 102.023 258.66 107.259 258.794C109.102 258.841 109.276 259.196 109.413 259.513C110.086 261.072 109.91 262.988 110.677 268.208C111.022 270.56 111.086 271.834 111.535 275.348C111.846 277.779 111.898 282.462 112.168 285.377C112.258 285.742 112.348 286.01 112.394 287.354C112.44 288.699 112.44 291.112 112.44 293.599" stroke="#1A489E" stroke-width="2" stroke-linecap="round"/>
<path d="M58.8164 261.368C58.9058 261.907 59.266 263.167 59.4028 265.018C59.4537 265.708 59.6289 269.905 59.6736 276.043C59.6989 279.517 59.9892 281.045 60.1246 284.448C60.1706 287.405 60.1706 292.857 60.26 295.799C60.3494 298.742 60.5281 299.01 60.7123 299.557" stroke="#1A489E" stroke-width="2" stroke-linecap="round"/>
<path d="M106.48 243.493C106.659 243.671 107.019 243.853 108.856 243.988C113.284 244.034 116.767 244.124 117.714 244.304C118.124 244.395 118.392 244.484 119.21 244.847" stroke="#1A489E" stroke-width="2" stroke-linecap="round"/>
<path d="M134.648 247.014C136.796 247.014 141.322 247.192 144.567 247.329C146.319 247.403 148.445 247.826 150.711 248.051C152.787 248.257 154.231 248.368 155.902 248.593C157.634 248.826 159.022 248.728 159.473 248.998C160.41 249.557 160.287 251.25 160.423 258.091C160.46 259.921 160.65 264.039 160.694 269.861C160.712 272.201 160.92 273.546 161.01 275.305C161.099 275.991 161.278 276.26 163.962 276.398C166.646 276.536 171.83 276.536 177.171 276.536" stroke="#1A489E" stroke-width="2" stroke-linecap="round"/>
<path d="M81.6328 250.739C82.4399 251.188 85.1603 251.434 89.2676 251.662C91.4353 251.783 92.6627 252.609 94.7333 252.926C98.6698 253.528 99.9755 253.422 101.735 253.603C103.032 253.737 104.217 254.234 105.394 254.416C106.672 254.613 108.724 255.139 110.988 255.588C112.507 255.89 114.325 255.951 116.045 256.176C116.497 256.222 117.033 256.222 117.444 256.311C117.854 256.401 118.122 256.58 118.94 256.764" stroke="#1A489E" stroke-width="2" stroke-linecap="round"/>
<path d="M133.84 257.847C134.379 257.937 135.459 258.297 136.634 258.614C138.123 259.016 139.966 258.931 141.419 259.2C141.979 259.304 142.415 259.74 142.73 260.281C143.026 260.787 143.049 263.689 143.093 267.795C143.147 272.721 143.498 278.876 143.635 280.727C143.779 282.673 144.04 285.376 144.401 286.777C144.698 287.927 145.123 289.168 145.485 290.389C145.878 291.718 146.656 292.781 147.649 293.551C148.698 294.365 151.607 294.14 153.606 294.635C155.149 295.016 156.585 295.224 158.254 295.493C160.556 295.765 162.455 295.855 163.445 295.99C163.988 296.036 164.613 296.036 165.258 296.307" stroke="#1A489E" stroke-width="2" stroke-linecap="round"/>
<path d="M61.1055 269.265C61.7612 269.374 67.6431 269.595 72.2432 268.885C75.7097 267.947 77.2453 267.838 83.5622 267.674C89.2266 267.618 99.8832 267.618 110.533 267.618" stroke="#1A489E" stroke-width="2" stroke-linecap="round"/>
</svg>
