<svg width="208" height="208" viewBox="0 0 208 208" fill="none" xmlns="http://www.w3.org/2000/svg">
<path d="M50.1941 193.328C41.9508 185.285 37.633 185.939 19.159 159.291C7.77351 142.867 5.20181 122.903 4.03871 97.1148C3.41054 83.1869 10.3962 68.8311 27.2781 47.4517C59.1344 7.10846 79.64 12.2394 94.3086 7.39418C120.587 -1.286 141.341 8.99309 153.062 11.8033C165.069 14.6819 174.495 25.9028 182.806 36.8044C195.84 53.9018 199.383 73.5309 202.025 88.8538C208.058 123.838 198.66 138.941 195.272 151.478C190.823 167.941 175.353 184.195 167.81 192.274C156.517 197.131 117.877 209.524 90.8036 201.147C82.7125 198.643 57.1834 179.073 54.8798 178.249M107.463 175.277C107.463 174.712 107.463 163.117 107.594 144.719C107.7 129.9 108.788 121.363 109.191 116.066C109.289 114.774 109.586 113.365 109.722 103.453C109.858 93.5407 109.858 75.1726 109.726 65.1451C109.331 53.9872 108.796 51.6923 108.397 49.5558C108.261 48.5496 108.261 47.7018 108.261 46.8284M108.263 46.4491C109.053 48.7184 112.765 54.4129 115.571 59.9876C117.943 64.7003 119.966 67.84 123.682 76.3861C126.179 82.13 127.15 87.5355 128.747 90.965C129.545 94.3946 131.142 96.9636 132.072 98.6719C132.475 99.5325 132.738 100.38 132.212 100.397M107.464 46.8284C107.464 49.6714 105.883 55.9225 104.143 61.51C102.085 68.1163 98.4269 74.2135 96.9581 77.6431C95.44 81.1876 93.6371 84.4894 91.6374 87.919C89.6446 91.3366 88.5759 95.6216 86.8476 99.0512C86.4445 99.9118 86.181 100.76 85.7819 101.62C85.3827 102.481 84.8558 103.328 83.5147 104.202" stroke="#1A489E" stroke-width="8" stroke-linecap="round"/>
</svg>
