<svg width="484" height="360" viewBox="0 0 484 360" fill="none" xmlns="http://www.w3.org/2000/svg">
<path d="M12.8608 28.9696C12.8608 45.2809 11.8976 78.3269 10.9198 89.8266C9.67936 104.416 6.06015 113.602 5.32317 121.828C4.5802 130.122 3.14141 140.849 1.68205 175.63C0.477484 204.339 1.18586 255.578 1.42666 283.128C1.68786 313.014 2.64523 329.84 5.05319 351.711C5.90626 359.459 12.2771 359.147 15.4804 358.914C27.4246 358.046 50.6876 355.873 70.6299 353.743C102.245 350.365 127.144 353.037 133.456 352.332C138.775 351.737 143.693 351.626 161.789 350.921C177.467 350.309 206.373 350.681 222.703 350.448C241.935 350.174 251.161 349.27 264.981 348.804C272.552 348.549 281.209 347.407 316.979 346.695C352.748 345.982 415.355 345.516 448.088 344.578C480.822 343.64 481.785 342.243 482.281 336.634C484.69 309.409 480.355 299.941 479.377 281.852C479.108 276.87 477.932 272.228 477.436 248.643C476.94 225.058 476.94 182.685 476.699 160.159C476.383 130.561 474.021 118.371 472.81 109.673C470.955 96.3484 471.102 86.8776 469.891 74.1714C468.635 60.9895 466.724 47.849 465.272 36.5327C464.119 27.544 462.842 19.1207 456.086 8.31237C446.316 -7.3155 422.476 6.85903 402.702 7.56454C384.864 8.20094 351.142 7.80441 332.09 8.27004C301.291 9.02278 285.821 12.489 273.643 13.6813C265.788 14.4503 258.064 15.7907 246.418 17.4416C228.557 19.9737 217.727 20.0238 180.586 20.7364C163.675 21.0608 150.071 22.8458 134.295 23.5584C128.636 23.814 101.167 24.7366 61.7715 24.9694C46.4555 25.6678 42.559 26.6132 34.817 27.3187C29.483 27.5586 21.296 27.5586 12.8608 27.5586" stroke="#1A489E" stroke-width="2" stroke-linecap="round"/>
</svg>
