<svg width="135" height="195" viewBox="0 0 135 195" fill="none" xmlns="http://www.w3.org/2000/svg">
<path d="M37.2861 48.2614C38.6677 48.02 44.6337 46.8184 48.7205 49.007C49.4992 49.424 49.5806 49.77 49.8192 49.9629C50.7264 50.8187 51.4837 51.5817 52.3909 52.7261C53.201 53.8705 54.3763 54.8818 54.9613 56.1551C55.4871 57.2995 57.0013 58.5145 56.1014 63.879C55.7671 65.8721 55.6642 67.4159 54.6212 68.491C53.0925 70.0669 51.7143 71.5609 50.3821 71.87C47.9318 72.4387 44.4546 72.7107 42.0453 72.1043C40.3308 71.6729 38.527 71.2628 37.2861 70.4355C36.1417 69.6726 33.9272 68.1604 33.0013 66.4336C32.3355 65.192 31.57 63.9179 31.3368 62.7188C31.0953 61.4772 29.8812 56.7876 31.2925 54.1448C32.0554 52.7161 32.9087 51.5858 34.2 51.0044C35.6788 50.3386 35.9179 48.5005 37.2861 48.2614Z" stroke="#1A489E" stroke-width="2" stroke-linecap="round"/>
<path d="M66.0588 42.1284C67.2933 42.7914 69.8593 45.6637 71.1938 47.2396C72.1442 48.362 72.814 49.5728 73.6241 50.7643C74.5841 52.1765 75.1971 53.2875 75.8158 54.432C76.3972 55.5075 76.8145 56.7165 77.3403 57.861C77.6156 58.4602 77.9604 59.0997 78.1032 59.8598C78.3884 61.377 76.7288 62.7173 76.0587 63.9561C75.1856 65.57 74.4428 66.7179 72.7768 68.9053C71.3126 70.8278 69.9679 72.3357 69.2006 73.5302C68.4901 74.6364 67.1104 75.7648 66.0588 77.0535C64.9233 78.4451 64.1557 79.5767 62.9641 80.5311C61.5162 81.6909 60.9153 83.0057 60.1052 84.1973C59.1036 85.5803 58.3435 86.5319 57.6306 87.1977C57.2948 87.4863 56.1079 88.4734 55.8164 88.6677" stroke="#1A489E" stroke-width="2" stroke-linecap="round"/>
<path d="M53.0054 71.0098C53.0054 71.8642 53.194 73.3815 53.3383 74.8617C53.5294 76.8215 53.7655 78.3364 53.9098 81.0011C54.0045 82.7492 54.4342 84.623 55.3829 89.185C55.6404 90.4237 56.0487 91.8582 56.8102 93.8085C57.2998 95.0625 58.5176 99.262 60.4221 105.117C61.7979 109.347 62.4352 112.244 62.9096 114.768C63.0607 115.573 63.101 116.156 63.2439 119.508C63.3746 122.574 63.2925 128.423 63.2453 131.576C63.185 135.609 62.4352 136.444 62.2938 136.967C61.9864 138.103 59.9663 137.778 57.5889 138.113C54.1845 138.592 53.0111 137.687 50.6351 136.974C47.5843 136.059 42.8498 134.932 40.1037 133.878C38.6292 133.312 37.5805 132.544 35.4403 131.072C33.7101 129.882 32.5342 128.36 31.1025 127.021C29.82 125.822 28.6251 123.977 27.8621 122.735C27.142 121.563 26.3391 120.073 25.8133 118.735C25.3069 117.445 25.0017 115.41 24.7646 112.884C24.3767 108.753 25.0017 106.077 25.2389 104.021C25.4865 101.875 25.859 100.734 26.902 97.5975C27.5709 95.5864 28.1393 94.4471 28.7622 93.2555C29.4477 91.9443 29.6652 90.7323 30.5225 89.115C31.8415 86.6264 32.8085 85.1145 33.6186 83.8729C34.5223 82.4877 35.666 81.3025 36.4761 80.1581C37.3548 78.9168 38.2378 77.8735 40.1394 75.7804C40.6209 75.016 41.001 74.4416 41.4768 73.8244C41.6696 73.4901 41.7639 73.1129 42.1468 72.1528" stroke="#1A489E" stroke-width="2" stroke-linecap="round"/>
<path d="M32.0057 86.5029C31.6285 87.0716 30.8199 88.0519 29.5312 88.8191C28.1324 89.6519 26.065 90.8122 23.9604 92.341C22.7384 93.2287 21.3901 94.1498 20.1485 94.7728C18.4513 95.6243 16.4352 96.9159 15.0536 97.8189C14.4236 98.2306 14.0491 98.7247 13.9063 99.2948C13.8355 99.5773 13.8577 99.8649 13.9991 100.105C14.6525 101.214 16.3266 101.865 17.8053 102.772C19.1331 103.587 20.8929 105.1 22.5674 106.676C22.996 107.012 23.5618 107.294 23.9004 107.582C24.239 107.869 24.3333 108.152 24.4305 108.443" stroke="#1A489E" stroke-width="2" stroke-linecap="round"/>
<path d="M34.1715 130.156C34.1715 131.485 33.9587 131.869 32.6757 137.756C32.2042 139.919 32.3385 141.111 32.1956 143.049C31.8798 147.334 32.0527 150.446 31.9099 153.515C31.7803 156.299 31.8613 161.582 31.8141 164.491C31.7392 169.114 31.3869 171.777 31.2426 173.493C31.0191 176.151 31.3812 180.161 31.9541 181.259C32.5417 182.384 34.3302 182.356 35.5718 182.737C35.8589 182.833 36.1418 182.927 36.429 183.023C36.7162 183.119 36.9991 183.213 37.5763 183.31" stroke="#1A489E" stroke-width="2" stroke-linecap="round"/>
<path d="M53.6532 138.093C53.5589 138.756 53.2927 139.676 52.8183 141.536C52.3954 143.195 51.4867 145.294 50.9138 147.677C50.1881 150.695 48.6349 155.558 48.102 158.728C47.8118 160.455 47.5777 162.342 47.3405 164.112C47.1685 165.396 47.0062 168.428 46.7218 170.541C46.4997 172.192 46.1489 173.492 45.8646 175.018C45.7211 175.788 45.5774 178.712 45.766 182.57C45.8307 183.894 46.3318 183.882 46.6675 183.929C48.1481 184.137 49.858 184.356 51.2396 184.737C51.5753 184.833 51.8582 184.927 52.1454 185.023C52.4326 185.119 52.7155 185.213 53.2927 185.31" stroke="#1A489E" stroke-width="2" stroke-linecap="round"/>
<path d="M1 185.025C1.0943 185.119 1.1886 185.213 5.76348 185.215C10.3384 185.216 19.391 185.122 36.3603 185.875C53.3297 186.628 77.9415 188.231 90.9032 189.151C103.865 190.071 104.431 190.26 104.958 190.404C106.736 190.891 107.865 191.311 109.531 191.786C111.012 192.072 112.152 192.832 113.296 193.167C113.583 193.309 113.866 193.592 114.729 193.883" stroke="#1A489E" stroke-width="2" stroke-linecap="round"/>
<path d="M59.293 100.156C59.8616 100.251 61.5676 100.442 63.2406 100.205C64.4303 100.036 65.7624 99.8707 68.4742 99.3963C70.1344 99.1059 71.666 98.8248 73.0048 98.2533C74.0719 97.7978 75.4779 97.4932 77.3353 96.9675C79.4257 96.3757 80.7186 95.6816 85.4678 94.0671C87.9094 93.237 89.7655 92.7269 91.7658 92.0154C92.5851 91.724 94.5204 91.3982 99.6825 90.2123C103.311 89.3788 109.088 88.5549 112.287 87.9749C117.048 87.1115 119.855 86.7261 123.24 86.2518C127.261 85.6882 129.199 85.6803 130.678 85.536C131.014 85.4888 131.297 85.3945 131.772 85.3459C132.248 85.2974 132.908 85.2974 133.588 85.2974" stroke="#1A489E" stroke-width="2" stroke-linecap="round"/>
<path d="M133.589 85.2972C133.589 82.4654 133.4 75.7874 133.019 73.6828C132.755 72.2264 132.446 70.7296 131.687 68.3522C131.136 66.6248 130.731 65.3003 130.163 63.5887C129.229 60.7767 128.828 59.3967 128.21 57.3493C127.676 55.5846 127.114 53.876 126.068 50.0683C125.521 48.0787 124.451 44.0804 124.112 39.9227C123.967 38.141 123.685 36.8223 123.541 32.166C123.46 29.5613 123.016 27.3011 122.542 25.0122C122.112 22.9367 121.873 17.8084 121.589 14.3894C121.425 12.4221 121.113 10.5332 120.494 9.24442C119.829 7.85731 119.873 5.6811 119.589 4.10089C119.493 3.76656 119.399 3.38937 119.35 2.91217C119.301 2.43496 119.301 1.86917 119.016 1.00049" stroke="#1A489E" stroke-width="2" stroke-linecap="round"/>
<path d="M118.729 1.00049C117.588 1.00049 116.448 1.18908 115.21 1.52341C113.547 1.97209 111.596 2.04634 108.172 2.23779C103.748 2.48508 101.315 3.00075 98.4503 3.4751C95.8932 3.89851 92.0851 4.14376 88.3089 4.6181C84.9396 5.04135 83.2097 5.18961 81.6338 5.33391C80.3097 5.45516 79.0149 5.85827 77.0646 6.09544C75.0158 6.3446 72.734 6.90412 70.8238 7.04842C69.542 7.14525 68.2535 7.76137 66.7276 7.90568C65.19 8.05109 63.87 8.52147 62.3941 8.95296C60.6853 9.45254 58.7322 9.76163 56.7291 10.0002C53.7075 10.3602 52.44 10.9046 51.2484 11.2861C49.882 11.7236 48.348 12.0476 46.2506 12.4763C44.6667 12.8 43.5817 13.1907 41.1571 13.8565C39.247 14.381 38.1524 14.9052 36.5336 15.5238C35.193 16.0361 33.3003 16.8083 31.3429 17.3341C29.8259 17.7415 28.534 18.237 27.2452 18.9528C25.8748 19.714 24.4363 19.8601 23.2447 20.3816C21.8897 20.9746 20.5329 21.666 18.9599 22.1918C17.1544 22.7953 15.8638 23.4777 14.7193 23.9063C13.5004 24.3629 12.4347 24.9065 11.2903 25.5251C11.0031 25.6694 10.7202 25.7637 10.433 25.9066C10.1459 26.0495 9.86297 26.2381 9 26.4324" stroke="#1A489E" stroke-width="2" stroke-linecap="round"/>
<path d="M8.71484 26.4326C8.90344 27.2842 9.47494 28.9987 10.0936 30.3803C10.6975 31.729 11.1895 33.4735 12.0453 35.4266C12.6466 36.799 13.0011 38.5199 13.4755 40.0958C13.8506 41.3421 14.2356 43.4691 14.7613 46.3767C15.2212 48.9198 15.6643 51.1844 15.9058 55.515C16.0844 58.7179 16.333 61.0028 16.7145 64.329C16.967 66.5307 17.1902 68.621 17.5246 70.3841C17.8016 71.8451 17.8589 73.193 18.3804 74.4818C18.9237 75.8244 19.1905 77.0049 19.382 78.2908C19.6685 80.2157 20.5221 81.4798 20.8107 82.8628C21.2143 84.797 22.048 86.0518 22.6667 87.5777C23.191 89.0094 23.6682 89.8666 23.8111 90.4838C23.8597 90.8182 23.8597 91.1954 23.8597 91.584" stroke="#1A489E" stroke-width="2" stroke-linecap="round"/>
<path d="M23.8594 37.8626C24.428 37.5797 25.5682 36.251 29.5587 32.2576C30.9918 30.8234 36.5753 31.0046 40.4701 31.2418C44.8029 31.5056 46.5195 30.6274 48.1426 30.0545C49.6685 29.1958 51.5659 28.6271 53.0018 28.1485C53.2889 28.0528 53.5718 27.9585 53.8633 27.8613" stroke="#1A489E" stroke-width="2" stroke-linecap="round"/>
<path d="M83.582 43.5777C84.245 43.3891 85.5766 42.2518 86.8153 40.8216C87.7453 39.7479 88.3427 38.7228 88.817 38.2942C89.3206 37.8391 90.623 38.9028 91.9588 39.5286C93.5133 40.2568 95.195 39.1028 96.7666 38.7685C99.5231 38.1821 100.91 39.48 103.289 39.3415C106.091 39.1782 106.631 36.7254 107.059 35.581C107.172 35.2806 107.391 35.0109 107.724 34.8652C109.297 34.6251 110.437 34.4337 111.389 34.5751C111.774 34.7166 111.963 34.9995 112.157 35.5767" stroke="#1A489E" stroke-width="2" stroke-linecap="round"/>
<path d="M90.4414 59.8654C91.2958 59.5825 92.6245 58.631 93.8661 57.6308C94.918 56.7836 98.0367 56.7222 100.86 56.9593C105.569 57.3549 106.912 56.0592 108.154 55.5806C108.724 55.3906 109.298 55.1048 109.868 54.7248C110.155 54.5333 110.438 54.3447 110.73 54.1504" stroke="#1A489E" stroke-width="2" stroke-linecap="round"/>
<path d="M54.0156 42.1486C54.2985 41.6743 54.3403 41.0113 55.2433 40.1041C56.2594 39.0831 56.8149 37.5823 57.5779 36.4379C58.3408 35.2935 60.4681 33.8926 61.231 32.7481C62.1303 31.3992 62.6214 30.2499 64.1473 29.0083C65.5126 27.8974 66.4333 26.9124 67.6249 25.9122C68.8531 24.8813 70.3367 24.152 71.5783 23.339C73.0258 22.3912 75.0087 22.0517 75.5316 22.0503C75.789 22.0496 75.9603 22.4261 76.0103 22.7132C76.2266 23.9555 75.5831 27.5467 75.2516 29.9042C75.0406 31.4051 74.2515 32.4274 73.4914 33.6661C72.3545 35.5189 70.8282 36.9022 69.3965 38.381C68.3401 39.4723 67.2048 40.4284 66.1575 41.5257C65.2 42.5289 64.1587 43.1945 63.1572 44.2389C61.6382 45.8229 60.7297 46.8121 59.5853 47.1964C58.4935 47.5631 57.5864 45.5834 56.6792 44.4389C56.1577 43.8689 55.5833 43.3888 55.0604 42.9616C54.8204 42.723 54.6318 42.4401 54.4374 42.1486" stroke="#1A489E" stroke-width="2" stroke-linecap="round"/>
<path d="M57.6211 37.7988C58.4201 38.0553 60.8974 39.6016 62.9164 40.9031C63.2304 41.1634 63.495 41.4198 63.7635 41.6802C64.0321 41.9405 64.2967 42.1969 64.8365 42.8496" stroke="#1A489E" stroke-width="2" stroke-linecap="round"/>
<path d="M66.7227 27.2896C67.2913 27.4781 68.8086 28.4268 70.3846 29.287C71.0032 29.667 71.4833 30.1442 71.9105 30.62C72.1491 30.8129 72.432 30.9072 73.2949 31.5758" stroke="#1A489E" stroke-width="2" stroke-linecap="round"/>
<path d="M71.582 23.8608C72.1478 24.0494 72.7222 24.3352 73.2923 24.6681C73.8623 24.9067 74.4367 25.1924 75.0068 25.5253C75.2939 25.6696 75.5768 25.7639 75.8683 25.8611" stroke="#1A489E" stroke-width="2" stroke-linecap="round"/>
</svg>
