<svg width="50" height="91" viewBox="0 0 50 91" fill="none" xmlns="http://www.w3.org/2000/svg">
<path d="M1 30.416C8.33555 32.8428 13.851 43.8369 16.6087 51.816C16.9581 52.8269 18.7597 46.3741 21.5083 42.0904C23.9643 38.2626 28.5589 37.1632 32.2266 37.1541C41.338 37.1312 42.66 50.6026 46.6404 61.3209C48.5288 66.4063 48.8006 72.0577 47.5872 77.5639C45.0532 89.063 26.1872 88.6224 17.2706 89.56C15.1196 88.6592 12.6928 86.2324 10.5325 84.0722C8.37232 81.9119 6.55222 80.0918 4.67697 78.2166" stroke="#1A489E" stroke-width="2" stroke-linecap="round"/>
<path d="M1 28.5772C1 27.9706 1 27.3639 6.15695 23.4111C11.3139 19.4584 21.6278 12.178 34.0927 1" stroke="#1A489E" stroke-width="2" stroke-linecap="round"/>
</svg>
