<svg width="46" height="79" viewBox="0 0 46 79" fill="none" xmlns="http://www.w3.org/2000/svg">
<path d="M8.35393 26.7388C10.1924 32.2358 12.6192 39.5714 13.8694 46.6404C14.1271 48.0977 15.0828 41.465 17.8313 38.1006C20.579 34.7372 24.8819 33.486 28.5497 32.8701C32.2145 32.2547 36.5195 36.5195 40.4998 41.1065C47.3679 49.0215 42.6784 61.6516 40.8491 65.016C33.5044 70.844 18.8701 78.1795 8.68486 77.6188C7.14053 76.3962 5.92714 74.5761 1 70.8624" stroke="#1A489E" stroke-width="2" stroke-linecap="round"/>
<path d="M10.1953 17.5464C11.4087 17.5464 12.6221 17.5464 18.1008 15.1196C23.5795 12.6928 33.2867 7.83916 43.288 1" stroke="#1A489E" stroke-width="2" stroke-linecap="round"/>
</svg>
