<svg width="78" height="91" viewBox="0 0 78 91" fill="none" xmlns="http://www.w3.org/2000/svg">
<path d="M1 34.0923C2.83848 35.9124 4.05188 43.2479 4.98032 52.4403C5.48018 57.3895 6.51545 61.6512 6.51545 62.5888C6.51545 72.7547 11.4058 46.9801 14.1543 43.919C15.4732 42.4502 17.5096 42.0713 19.3573 43.5789C24.2547 47.5748 26.1137 54.2972 27.9522 58.5717C32.0745 68.1562 23.0986 77.554 15.7354 86.7648C13.8878 88.6217 12.0677 89.8351 10.5233 89.5501C8.97902 89.2652 7.76562 87.4451 4.67697 85.5698" stroke="#1A489E" stroke-width="2" stroke-linecap="round"/>
<path d="M6.51562 24.9002C7.72902 24.9002 10.1742 23.6869 13.842 20.9383C15.6897 19.4032 17.5098 17.5831 19.3574 16.0388C21.2051 14.4944 23.0252 13.281 26.7389 10.1924" stroke="#1A489E" stroke-width="2" stroke-linecap="round"/>
<path d="M61.6719 1C61.6719 3.4268 61.6719 7.10376 62.5819 13.2075C63.492 16.8845 65.3121 21.7381 66.8564 26.3619C68.4007 30.9857 69.6141 35.2326 70.8643 41.4466" stroke="#1A489E" stroke-width="2" stroke-linecap="round"/>
<path d="M50.6406 30.4156C51.854 30.4156 54.2992 30.4156 57.967 30.1122C61.6348 29.2022 65.3301 27.3637 68.6945 24.0085C70.2389 21.8666 71.4523 18.8331 76.3794 12.0308" stroke="#1A489E" stroke-width="2" stroke-linecap="round"/>
</svg>
