<svg width="137" height="72" viewBox="0 0 137 72" fill="none" xmlns="http://www.w3.org/2000/svg">
<path d="M35.2878 6.81602C34.9019 6.74856 34.2325 5.99472 32.9406 4.80401C31.3775 3.36333 28.7327 4.16469 26.8368 4.68861C23.937 5.4899 22.5576 8.43631 20.7044 11.0067C18.2128 14.4625 17.8536 18.1108 17.8635 21.4475C17.8718 24.2296 22.5766 24.3138 24.8383 24.6096C27.6152 24.9728 29.455 20.6026 30.4221 17.9834C31.0846 16.189 31.9874 14.1824 32.9477 13.273C37.3493 9.10458 29.9062 33.0438 25.0729 41.7695C23.3643 44.854 20.5711 46.2565 17.5625 47.4413C13.8919 48.8868 8.94541 48.5202 4.53953 47.3252C2.75685 46.8417 2.20683 45.6438 1.79866 44.4983C1.39049 43.3527 1.22075 42.0495 1.20534 40.9662C1.18993 39.883 1.33399 39.0591 1.48241 38.2103" stroke="#1A489E" stroke-width="2" stroke-linecap="round"/>
<path d="M65.3474 23.2135C65.1383 21.7436 64.0866 19.4184 62.8226 18.468C60.4477 16.6823 56.4899 20.4638 53.6355 22.1491C50.896 23.7667 52.0421 29.7268 53.4075 34.0764C54.0991 36.2797 55.8373 37.9888 57.1013 39.4651C58.1734 40.7172 60.6842 40.954 63.5322 40.7449C64.7227 40.6575 65.3347 40.1177 65.867 39.1704C68.3574 34.738 68.9335 31.4629 69.1489 28.2886C69.4337 24.0923 68.5153 37.9761 66.8332 42.7312C65.0387 47.8038 61.9894 54.6522 59.021 57.63C56.2772 60.3826 52.4856 61.647 49.4127 62.3883C46.137 61.8687 42.3482 58.5044 40.6407 55.536C40.4284 54.8993 40.2193 54.272 40.0039 53.6257" stroke="#1A489E" stroke-width="2" stroke-linecap="round"/>
<path d="M118.95 17C118.532 17 117.69 18.4636 115.798 22.3538C112.924 28.2658 106.741 37.0087 99.4676 47.5453C93.6576 57.2455 90.6544 63.0301 89.6027 65.3459C88.9691 66.6162 88.1328 68.0798 86.0039 70.2214" stroke="#1A489E" stroke-width="2" stroke-linecap="round"/>
<path d="M98.6773 27.7705C96.7892 27.7705 92.9877 28.1887 90.0288 30.2954C88.686 31.2514 88.3308 32.8329 88.014 34.306C87.8347 35.1396 87.9063 36.1972 88.3245 36.8403C89.1512 38.1117 91.0679 38.117 92.3319 38.3292C94.6603 37.2807 95.9275 35.3799 96.6656 34.1159C96.9856 33.4791 97.1947 32.8519 97.4101 30.9384" stroke="#1A489E" stroke-width="2" stroke-linecap="round"/>
<path d="M133.521 41.0761C132.052 40.2334 125.754 39.8089 121.176 42.2261C119.796 42.9548 120.216 45.7076 120.53 48.1343C120.744 49.7917 123.581 50.3645 126.425 50.9981C129.007 51.573 130.981 50.7953 132.14 49.8481C133.94 47.4183 134.998 45.5176 135.315 44.0445C135.422 43.1986 135.422 42.1532 134.789 41.0761" stroke="#1A489E" stroke-width="2" stroke-linecap="round"/>
</svg>
