<svg width="67" height="88" viewBox="0 0 67 88" fill="none" xmlns="http://www.w3.org/2000/svg">
<path d="M14.1484 7.57324C14.1484 8.65789 15.2331 12.4706 17.4188 18.7567C19.6046 24.5004 21.2644 30.5481 22.3573 36.2919C22.9078 38.7816 23.4501 40.4086 24.0089 43.7283" stroke="#1A489E" stroke-width="2" stroke-linecap="round"/>
<path d="M38.7969 1C41.5249 2.62698 45.8964 10.2688 47.2851 20.1375C47.5563 22.3479 48.0986 23.9749 48.378 26.7112C48.6573 29.4475 48.6573 33.2437 48.6573 37.1551" stroke="#1A489E" stroke-width="2" stroke-linecap="round"/>
<path d="M1 86.4569C2.08465 81.5431 15.1333 67.3933 26.9906 58.8065C30.0792 56.5698 38.1904 56.8755 48.0427 57.689C56.8596 63.4327 60.7052 68.3629 62.0692 71.6415C62.8909 73.2932 63.9755 74.9201 65.0931 79.8833" stroke="#1A489E" stroke-width="2" stroke-linecap="round"/>
</svg>
