<svg width="63" height="96" viewBox="0 0 63 96" fill="none" xmlns="http://www.w3.org/2000/svg">
<path d="M5.92969 2.64355C6.47201 6.45627 8.65775 17.3685 10.8517 25.6267C11.4022 27.2783 11.9446 28.9053 12.4951 30.5569C13.0457 32.2085 13.588 33.8355 14.1467 35.5118" stroke="#1A489E" stroke-width="2" stroke-linecap="round"/>
<path d="M28.9375 1C28.9375 4.25396 29.4798 8.09954 30.3015 16.2673C30.5809 22.2657 30.5809 32.0276 30.8521 37.8699C31.1232 43.7123 31.6656 45.3393 32.2243 47.0155" stroke="#1A489E" stroke-width="2" stroke-linecap="round"/>
<path d="M1 74.9533C2.62698 72.2253 8.09954 66.7691 19.0118 62.3648C32.1281 57.0709 44.2546 63.433 48.0837 66.9828C53.5727 74.9369 57.9607 81.4941 60.1546 88.3471C60.7052 90.2699 61.2475 92.4392 61.8062 94.6743" stroke="#1A489E" stroke-width="2" stroke-linecap="round"/>
</svg>
