<svg width="64" height="91" viewBox="0 0 64 91" fill="none" xmlns="http://www.w3.org/2000/svg">
<path d="M27.7539 6.73291C27.7539 7.99412 27.7539 9.25533 28.0692 11.4816C28.3845 13.7078 29.0151 16.8608 29.6553 20.3769C30.2954 23.893 30.926 27.6767 31.5758 33.4859" stroke="#1A489E" stroke-width="2" stroke-linecap="round"/>
<path d="M48.7734 1C50.0346 1 50.6844 2.89182 50.9997 7.33472C51.315 9.88581 51.9456 13.0388 52.2704 17.1856C52.5953 21.3323 52.5953 26.3771 52.5953 31.5748" stroke="#1A489E" stroke-width="2" stroke-linecap="round"/>
<path d="M1 85.3962C3.54153 79.0519 8.60549 68.8858 18.4754 63.755C24.5161 60.6148 35.9509 58.6432 48.6872 59.5891C53.8562 62.4269 57.0284 70.6821 60.8502 81.1826C62.1497 85.3771 62.1497 87.2689 62.1497 89.2181" stroke="#1A489E" stroke-width="2" stroke-linecap="round"/>
</svg>
