<svg width="62" height="83" viewBox="0 0 62 83" fill="none" xmlns="http://www.w3.org/2000/svg">
<path d="M20.9783 2.37406C23.8347 4.27833 26.2583 6.68753 31.6682 13.6915C36.032 19.3411 44.0604 28.9473 48.7033 34.8068C54.6257 42.2812 57.1883 46.1146 59.6721 49.3172C60.6391 50.5642 60.7276 51.2504 59.2224 50.8632C57.7173 50.4761 54.5435 49.0479 50.0521 47.3601C45.5607 45.6722 39.8479 43.7679 31.6682 41.5174C23.4885 39.2669 13.015 36.7279 6.66744 35.4199C0.319866 34.1119 -1.5844 34.1119 5.6071 29.748C12.7986 25.384 29.1436 16.6561 38.6746 11.2871C50.6444 4.54429 53.1922 1.73931 53.8342 1.01559C53.9591 0.874758 53.8414 1.40269 48.2056 14.9778C42.5697 28.553 31.4614 55.2128 25.5803 69.502C19.6992 83.7913 19.3818 84.9021 19.4563 75.953C19.5309 67.0039 20.007 47.9612 20.1729 36.247C20.1801 20.7243 19.8579 16.0069 19.6174 12.9798C19.5357 10.7461 19.5357 7.09627 19.5357 3.33582" stroke="#1A489E" stroke-width="2" stroke-linecap="round"/>
</svg>
