<svg width="52" height="44" viewBox="0 0 52 44" fill="none" xmlns="http://www.w3.org/2000/svg">
<path d="M13.6354 8.39942C16.2379 8.39942 22.2058 9.88017 28.011 12.1293C37.8091 15.9255 48.018 26.3367 49.7119 28.2045C55.1392 34.1889 15.6995 28.5915 4.09467 28.412C-8.4027 28.2187 20.7026 16.6557 25.0271 11.0356C28.1796 6.93861 29.7105 3.55333 30.2714 2.05014C32.8874 -4.96064 26.3564 25.1588 25.0439 32.8655C24.6978 34.8979 24.8532 37.8798 24.483 39.9607C24.1128 42.0416 23.3725 43.1522 22.2507 41.3181C15.0309 29.5137 17.0008 18.5628 15.8846 11.7816C15.5088 10.6542 15.1386 9.54364 14.7628 8.41625C14.387 7.28886 14.0168 6.17829 13.6354 3.9123" stroke="#1A489E" stroke-width="2" stroke-linecap="round"/>
</svg>
